<svg width="37" height="38" viewBox="0 0 37 38" fill="none" xmlns="http://www.w3.org/2000/svg">
<path d="M18.4999 4.06641C16.4754 4.06641 14.4707 4.46517 12.6002 5.23993C10.7298 6.01469 9.03026 7.15027 7.59869 8.58184C4.7075 11.473 3.08325 15.3943 3.08325 19.4831C3.08325 26.2972 7.50784 32.0785 13.6283 34.1289C14.3991 34.2522 14.6458 33.7743 14.6458 33.3581V30.7527C10.3753 31.6777 9.46575 28.6868 9.46575 28.6868C8.75659 26.8985 7.7545 26.4206 7.7545 26.4206C6.35159 25.4647 7.86242 25.4956 7.86242 25.4956C9.40409 25.6035 10.2212 27.0835 10.2212 27.0835C11.5624 29.4268 13.8287 28.7331 14.7074 28.3631C14.8462 27.361 15.247 26.6827 15.6787 26.2972C12.2562 25.9118 8.66409 24.586 8.66409 18.7122C8.66409 17.001 9.24992 15.6289 10.252 14.5343C10.0978 14.1489 9.55825 12.5456 10.4062 10.4643C10.4062 10.4643 11.7012 10.0481 14.6458 12.0368C15.8637 11.6977 17.1895 11.5281 18.4999 11.5281C19.8103 11.5281 21.1362 11.6977 22.3541 12.0368C25.2987 10.0481 26.5937 10.4643 26.5937 10.4643C27.4416 12.5456 26.902 14.1489 26.7478 14.5343C27.7499 15.6289 28.3358 17.001 28.3358 18.7122C28.3358 24.6014 24.7283 25.8964 21.2903 26.2818C21.8453 26.7597 22.3541 27.7002 22.3541 29.1339V33.3581C22.3541 33.7743 22.6008 34.2677 23.387 34.1289C29.5074 32.0631 33.9166 26.2972 33.9166 19.4831C33.9166 17.4585 33.5178 15.4538 32.7431 13.5834C31.9683 11.7129 30.8327 10.0134 29.4011 8.58184C27.9696 7.15027 26.2701 6.01469 24.3996 5.23993C22.5292 4.46517 20.5245 4.06641 18.4999 4.06641Z" fill="#F8F8F8"/>
</svg>
