<svg width="34" height="35" viewBox="0 0 34 35" fill="none" xmlns="http://www.w3.org/2000/svg">
<path d="M26.9167 5.23291C27.6681 5.23291 28.3888 5.53142 28.9201 6.06277C29.4515 6.59413 29.75 7.3148 29.75 8.06624V27.8996C29.75 28.651 29.4515 29.3717 28.9201 29.903C28.3888 30.4344 27.6681 30.7329 26.9167 30.7329H7.08333C6.33189 30.7329 5.61122 30.4344 5.07986 29.903C4.54851 29.3717 4.25 28.651 4.25 27.8996V8.06624C4.25 7.3148 4.54851 6.59413 5.07986 6.06277C5.61122 5.53142 6.33189 5.23291 7.08333 5.23291H26.9167ZM26.2083 27.1912V19.6829C26.2083 18.4581 25.7218 17.2834 24.8557 16.4173C23.9895 15.5511 22.8149 15.0646 21.59 15.0646C20.3858 15.0646 18.9833 15.8012 18.3033 16.9062V15.3337H14.3508V27.1912H18.3033V20.2071C18.3033 19.1162 19.1817 18.2237 20.2725 18.2237C20.7985 18.2237 21.303 18.4327 21.6749 18.8046C22.0469 19.1766 22.2558 19.6811 22.2558 20.2071V27.1912H26.2083ZM9.74667 13.1096C10.3779 13.1096 10.9832 12.8588 11.4296 12.4125C11.8759 11.9662 12.1267 11.3608 12.1267 10.7296C12.1267 9.41208 11.0642 8.33541 9.74667 8.33541C9.11169 8.33541 8.50273 8.58765 8.05373 9.03665C7.60474 9.48564 7.3525 10.0946 7.3525 10.7296C7.3525 12.0471 8.42917 13.1096 9.74667 13.1096ZM11.7158 27.1912V15.3337H7.79167V27.1912H11.7158Z" fill="#F8F8F8"/>
</svg>
