<svg width="68" height="68" viewBox="0 0 68 68" fill="none" xmlns="http://www.w3.org/2000/svg">
<rect width="68" height="68" rx="13" fill="#FF5500"/>
<g clip-path="url(#clip0_23_8)">
<path fill-rule="evenodd" clip-rule="evenodd" d="M34 13.1181C34 9.8653 31.3631 7.22836 28.1102 7.22836H13.1181C9.86527 7.22836 7.22833 9.8653 7.22833 13.1181V28.3028C7.22833 31.5557 9.86527 34.1925 13.1181 34.1925H28.1102C31.3631 34.1925 34 36.8295 34 40.0823V54.8819C34 58.1347 36.637 60.7717 39.8898 60.7717H54.8819C58.1346 60.7717 60.7716 58.1347 60.7716 54.8819V39.697C60.7716 36.4443 58.1346 33.8074 54.8819 33.8074H39.8898C36.637 33.8074 34 31.1705 34 27.9176V13.1181Z" fill="white"/>
</g>
<defs>
<clipPath id="clip0_23_8">
<rect width="53.5433" height="53.5433" fill="white" transform="translate(7.22833 7.22836)"/>
</clipPath>
</defs>
</svg>
